<svg width="89" height="63" viewBox="0 0 89 63" fill="none" xmlns="http://www.w3.org/2000/svg">
<g id="OBJECTS" clip-path="url(#clip0_677_635)">
<path id="Vector" d="M88.9309 21.6901C88.8927 20.6354 88.8392 19.5807 88.7627 18.5336C88.4188 14.0703 87.9221 8.96489 84.9796 5.39572C82.4575 2.33861 78.552 1.65077 74.8453 1.23041C70.1526 0.695421 65.4294 0.382067 60.7062 0.198641C51.1374 -0.168212 41.5687 0.0457856 31.9999 0.259783C27.0856 0.366782 22.1713 0.481423 17.2647 0.871204C11.2422 1.34506 5.05154 2.22397 2.25429 8.23883C-0.260177 13.6346 0.0455331 20.4902 0.0149621 26.2987C-0.015609 31.5034 -0.0308945 36.7158 0.17546 41.9205C0.442957 48.6691 0.848023 57.4659 8.13922 60.4313C12.0294 62.0133 16.7297 62.3649 20.8874 62.6324C25.2896 62.9152 29.7071 62.8846 34.117 62.9534C43.3724 63.091 52.6201 62.77 61.8679 62.5865C68.2954 62.4566 74.8835 62.3878 81.0359 60.2861C86.34 58.4747 87.7233 52.7274 88.4418 47.7366C89.1525 42.7765 88.9767 37.7475 88.9615 32.7568C88.9615 29.073 89.0532 25.3739 88.9232 21.6901H88.9309Z" fill="#FF0000"/>
<path id="Vector_2" d="M58.5283 31.3889C50.7556 26.8261 43.1587 22.3627 35.4854 17.8535V44.9318C43.1816 40.4073 50.7862 35.9439 58.5283 31.3889Z" fill="white"/>
</g>
<defs>
<clipPath id="clip0_677_635">
<rect width="89" height="62.9764" fill="white"/>
</clipPath>
</defs>
</svg>
