<?xml version="1.0" encoding="UTF-8"?>
<svg id="Layer_2" data-name="Layer 2" xmlns="http://www.w3.org/2000/svg" viewBox="0 0 1427.87 131.51">
  <g id="Layer_1-2" data-name="Layer 1">
    <g>
      <path d="M525.66,76.36c0,7.07-1.85,12.19-5.52,15.36-3.69,3.17-9.67,4.76-17.93,4.76s-14.25-1.58-17.93-4.76c-3.69-3.17-5.53-8.29-5.53-15.36V0h-115.68l-19.95,79.41L320.21,.9h-53.92l-23.18,78.51L223.43,0h-64.16l48.25,128.28h63.89l21.03-71.86,21.29,71.86h63.9l39.92-106.12v52.41c0,37.97,27.95,56.95,83.84,56.95,28.21,0,49.51-4.82,63.89-14.46,14.38-9.64,21.57-23.81,21.57-42.49V0h-61.2V76.36Z"/>
      <path d="M709.99,76.36c0,7.07-1.85,12.19-5.52,15.36-3.69,3.17-9.67,4.76-17.93,4.76s-14.25-1.58-17.93-4.76c-3.69-3.17-5.53-8.29-5.53-15.36V0h-61.2V74.56c0,37.97,27.95,56.95,83.85,56.95,28.21,0,49.51-4.82,63.89-14.46,14.38-9.64,21.56-23.81,21.56-42.49V0h-61.2V76.36Z"/>
      <path d="M941.49,16.08C924.6,5.36,899.61,0,866.54,0h-78.99V128.28h78.99c32.53,0,57.34-5.57,74.41-16.71,17.07-11.14,25.7-27.25,25.88-48.33,0-20.72-8.44-36.44-25.34-47.16m-45.56,70.52c-5.93,5.03-15.01,7.54-27.23,7.54h-21.3V34.14h21.3c12.4,.12,21.52,2.6,27.36,7.45,5.84,4.86,8.76,12.25,8.76,22.19s-2.97,17.79-8.89,22.81"/>
      <path d="M1113.42,11.15C1100.3,3.72,1080.43,0,1053.84,0h-74.68V128.28h58.77v-38.45h16.18c52.66,0,78.99-15.03,78.99-45.1,0-14.97-6.56-26.17-19.68-33.59m-40.85,44.02c-3.69,2.03-9.75,3.06-18.2,3.06h-16.44V31.62h16.44c8.45,0,14.51,1.02,18.2,3.06,3.68,2.04,5.53,5.45,5.53,10.23s-1.85,8.21-5.53,10.24"/>
      <polygon points="1205.27 0 1144.07 0 1144.07 128.28 1280.75 128.28 1285.87 93.24 1205.27 93.24 1205.27 0"/>
      <polygon points="1364.25 0 1334.6 46.72 1305.21 0 1240.24 0 1303.32 80.68 1303.32 128.28 1364.79 128.28 1364.79 80.68 1427.87 0 1364.25 0"/>
      <path d="M42.72,3.66c-1.85-1.1-4.38-1.99-7.61-2.66C31.88,.34,27.77,0,22.79,0H0V39.54H10.98v-14.73h12c4.86,0,8.88-.34,12.09-1.02,3.2-.69,5.73-1.61,7.61-2.77,1.88-1.16,3.18-2.52,3.92-4.07,.74-1.55,1.11-3.17,1.11-4.87,0-1.59-.37-3.11-1.11-4.57-.74-1.45-2.03-2.74-3.88-3.85m-6.6,11.46c-.4,.85-1.12,1.58-2.17,2.19-1.04,.61-2.48,1.08-4.28,1.42-1.82,.33-4.14,.5-6.97,.5H10.98V5.54h11.62c2.77,0,5.06,.15,6.87,.44,1.82,.3,3.26,.72,4.34,1.28,1.07,.55,1.83,1.24,2.26,2.07,.43,.82,.65,1.8,.65,2.9s-.2,2.04-.6,2.88"/>
      <polygon points="78.34 30.45 60.25 0 47.8 0 72.9 39.53 83.6 39.53 108.61 0 96.7 0 78.34 30.45"/>
      <polygon points="124.2 0 113.03 0 113.03 39.54 155.48 39.54 156.87 33.72 124.2 33.72 124.2 0"/>
      <path d="M1416.18,99.95c-3.49-3.2-8.02-4.8-13.57-4.8-3.66,0-6.93,.71-9.79,2.13-2.87,1.42-5.11,3.45-6.75,6.08-1.63,2.63-2.44,5.67-2.44,9.13s.76,6.24,2.27,8.82c1.52,2.57,3.71,4.61,6.57,6.11,2.86,1.49,6.19,2.24,9.96,2.24,5.61,0,10.18-1.6,13.7-4.8,3.52-3.2,5.29-7.35,5.29-12.45s-1.75-9.26-5.24-12.46m-3.19,21.45c-2.65,2.41-6.1,3.58-10.55,3.58-3,0-5.62-.57-7.79-1.71-2.09-1.09-3.63-2.51-4.7-4.34-1.1-1.86-1.63-3.97-1.63-6.44s.57-4.77,1.75-6.66c1.17-1.89,2.76-3.31,4.84-4.35,2.19-1.08,4.79-1.64,7.71-1.64,4.38,0,7.78,1.16,10.41,3.56,2.53,2.33,3.72,5.18,3.72,9.01s-1.19,6.66-3.75,8.99"/>
      <path d="M1409.57,109.39c0-3.66-2.32-5.49-6.96-5.49h-7.12v16.64h4.87v-5.34h2.32l2.39,5.34h5.42l-3.17-6.58c1.5-1.03,2.24-2.55,2.24-4.56m-5.49,1.59c-.36,.28-.96,.42-1.78,.42h-1.93v-3.64h1.7c1.7,0,2.55,.6,2.55,1.78,0,.67-.18,1.15-.54,1.43"/>
    </g>
  </g>
</svg>