<svg width="50" height="51" viewBox="0 0 50 51" fill="none" xmlns="http://www.w3.org/2000/svg">
<path fill-rule="evenodd" clip-rule="evenodd" d="M24.5977 0.532535C24.7315 0.530379 24.8656 0.529297 25 0.529297C25.1344 0.529297 25.2685 0.530379 25.4023 0.532535C25.6784 0.536982 25.8986 0.764415 25.8942 1.04052C25.8897 1.31663 25.6623 1.53686 25.3862 1.53241C25.2577 1.53034 25.129 1.5293 25 1.5293C24.871 1.5293 24.7423 1.53034 24.6138 1.53241C24.3377 1.53686 24.1103 1.31663 24.1058 1.04052C24.1014 0.764415 24.3216 0.536982 24.5977 0.532535ZM28.8066 1.32421C28.8557 1.05247 29.1159 0.872021 29.3876 0.921158C29.6511 0.968814 29.9132 1.02068 30.1738 1.0767C30.4437 1.13475 30.6155 1.40066 30.5575 1.67063C30.4995 1.9406 30.2335 2.11241 29.9636 2.05436C29.7137 2.00065 29.4624 1.9509 29.2097 1.9052C28.9379 1.85606 28.7575 1.59595 28.8066 1.32421ZM21.1934 1.32421C21.2425 1.59595 21.0621 1.85606 20.7903 1.9052C20.5376 1.9509 20.2863 2.00065 20.0364 2.05436C19.7665 2.11241 19.5005 1.9406 19.4425 1.67063C19.3845 1.40066 19.5563 1.13475 19.8262 1.0767C20.0868 1.02068 20.3489 0.968814 20.6124 0.921158C20.8841 0.872021 21.1443 1.05247 21.1934 1.32421ZM16.6418 2.51921C16.7433 2.77599 16.6175 3.06649 16.3607 3.16806C16.1221 3.26244 15.8854 3.36062 15.6506 3.46252C15.3973 3.57248 15.1028 3.45628 14.9929 3.20298C14.8829 2.94967 14.9991 2.65519 15.2524 2.54523C15.4972 2.43896 15.744 2.33658 15.9929 2.23815C16.2497 2.13659 16.5402 2.26242 16.6418 2.51921ZM33.3582 2.51921C33.4598 2.26242 33.7503 2.13659 34.0071 2.23815C34.256 2.33658 34.5028 2.43896 34.7476 2.54523C35.0009 2.65519 35.1171 2.94967 35.0071 3.20298C34.8972 3.45628 34.6027 3.57248 34.3494 3.46252C34.1146 3.36062 33.8779 3.26244 33.6393 3.16806C33.3825 3.06649 33.2567 2.77599 33.3582 2.51921ZM12.4132 4.58468C12.563 4.81662 12.4965 5.12613 12.2645 5.27599C12.0491 5.41519 11.836 5.55783 11.6255 5.70381C11.3986 5.86116 11.0871 5.80476 10.9297 5.57784C10.7724 5.35091 10.8288 5.03939 11.0557 4.88204C11.2752 4.72986 11.4972 4.58116 11.7219 4.43604C11.9538 4.28619 12.2633 4.35274 12.4132 4.58468ZM37.5868 4.58468C37.7367 4.35274 38.0462 4.28619 38.2781 4.43604C38.5028 4.58116 38.7248 4.72986 38.9443 4.88204C39.1712 5.03939 39.2276 5.35091 39.0703 5.57784C38.9129 5.80476 38.6014 5.86116 38.3745 5.70381C38.164 5.55783 37.9509 5.41519 37.7355 5.27599C37.5035 5.12613 37.437 4.81662 37.5868 4.58468ZM41.3314 7.43555C41.5234 7.23714 41.84 7.23199 42.0384 7.42405C42.2304 7.60992 42.4194 7.79891 42.6052 7.99093C42.7973 8.18934 42.7922 8.50588 42.5938 8.69794C42.3953 8.89 42.0788 8.88485 41.8867 8.68644C41.7084 8.50221 41.5271 8.32089 41.3429 8.14256C41.1444 7.9505 41.1393 7.63396 41.3314 7.43555ZM8.66864 7.43555C8.8607 7.63396 8.85555 7.9505 8.65714 8.14256C8.47291 8.32089 8.29159 8.50221 8.11326 8.68644C7.9212 8.88485 7.60466 8.89 7.40625 8.69794C7.20784 8.50588 7.20269 8.18934 7.39475 7.99093C7.58062 7.79891 7.76961 7.60992 7.96163 7.42405C8.16004 7.23199 8.47658 7.23714 8.66864 7.43555ZM5.54854 10.959C5.77546 11.1164 5.83186 11.4279 5.67451 11.6548C5.52853 11.8653 5.38589 12.0784 5.24669 12.2938C5.09683 12.5258 4.78732 12.5923 4.55538 12.4425C4.32344 12.2926 4.25689 11.9831 4.40674 11.7512C4.55186 11.5265 4.70056 11.3045 4.85274 11.085C5.01009 10.8581 5.32161 10.8017 5.54854 10.959ZM44.4515 10.959C44.6784 10.8017 44.9899 10.8581 45.1473 11.085C45.2994 11.3045 45.4481 11.5265 45.5933 11.7512C45.7431 11.9831 45.6766 12.2926 45.4446 12.4425C45.2127 12.5923 44.9032 12.5258 44.7533 12.2938C44.6141 12.0784 44.4715 11.8653 44.3255 11.6548C44.1681 11.4279 44.2245 11.1164 44.4515 10.959ZM46.8263 15.0222C47.0796 14.9122 47.3741 15.0284 47.4841 15.2817C47.5903 15.5265 47.6927 15.7733 47.7911 16.0222C47.8927 16.279 47.7669 16.5695 47.5101 16.6711C47.2533 16.7726 46.9628 16.6468 46.8612 16.39C46.7669 16.1514 46.6687 15.9147 46.5668 15.6799C46.4568 15.4266 46.573 15.1321 46.8263 15.0222ZM3.17368 15.0222C3.42698 15.1321 3.54318 15.4266 3.43322 15.6799C3.33132 15.9147 3.23314 16.1514 3.13876 16.39C3.03719 16.6468 2.74669 16.7726 2.48991 16.6711C2.23312 16.5695 2.10729 16.279 2.20885 16.0222C2.30728 15.7733 2.40966 15.5265 2.51593 15.2817C2.62589 15.0284 2.92037 14.9122 3.17368 15.0222ZM48.3587 19.4718C48.6286 19.4138 48.8946 19.5856 48.9526 19.8555C49.0086 20.1161 49.0605 20.3782 49.1081 20.6417C49.1573 20.9134 48.9768 21.1736 48.7051 21.2227C48.4334 21.2718 48.1732 21.0914 48.1241 20.8196C48.0784 20.5669 48.0287 20.3156 47.9749 20.0657C47.9169 19.7958 48.0887 19.5298 48.3587 19.4718ZM1.64133 19.4718C1.9113 19.5298 2.08311 19.7958 2.02506 20.0657C1.97135 20.3156 1.9216 20.5669 1.8759 20.8196C1.82676 21.0914 1.56665 21.2718 1.29491 21.2227C1.02317 21.1736 0.842724 20.9134 0.891861 20.6417C0.939517 20.3782 0.991388 20.1161 1.0474 19.8555C1.10545 19.5856 1.37136 19.4138 1.64133 19.4718ZM1.01122 24.1351C1.28733 24.1396 1.50756 24.367 1.50311 24.6431C1.50104 24.7716 1.5 24.9003 1.5 25.0293C1.5 25.1583 1.50104 25.287 1.50311 25.4155C1.50756 25.6916 1.28733 25.919 1.01122 25.9235C0.735118 25.9279 0.507685 25.7077 0.503238 25.4316C0.501082 25.2978 0.5 25.1637 0.5 25.0293C0.5 24.8949 0.501082 24.7608 0.503238 24.627C0.507685 24.3509 0.735118 24.1307 1.01122 24.1351ZM48.9888 24.1351C49.2649 24.1307 49.4923 24.3509 49.4968 24.627C49.4989 24.7608 49.5 24.8949 49.5 25.0293C49.5 25.1637 49.4989 25.2978 49.4968 25.4316C49.4923 25.7077 49.2649 25.9279 48.9888 25.9235C48.7127 25.919 48.4924 25.6916 48.4969 25.4155C48.499 25.287 48.5 25.1583 48.5 25.0293C48.5 24.9003 48.499 24.7716 48.4969 24.6431C48.4924 24.367 48.7127 24.1396 48.9888 24.1351ZM48.7051 28.8359C48.9768 28.885 49.1573 29.1452 49.1081 29.4169C49.0605 29.6804 49.0086 29.9425 48.9526 30.2031C48.8946 30.473 48.6286 30.6448 48.3587 30.5868C48.0887 30.5288 47.9169 30.2628 47.9749 29.9929C48.0287 29.743 48.0784 29.4917 48.1241 29.239C48.1732 28.9672 48.4334 28.7868 48.7051 28.8359ZM1.29491 28.8359C1.56665 28.7868 1.82676 28.9672 1.8759 29.239C1.9216 29.4917 1.97135 29.743 2.02506 29.9929C2.08311 30.2628 1.9113 30.5288 1.64133 30.5868C1.37136 30.6448 1.10545 30.473 1.0474 30.2031C0.991388 29.9425 0.939517 29.6804 0.891861 29.4169C0.842724 29.1452 1.02317 28.885 1.29491 28.8359ZM2.48991 33.3875C2.74669 33.286 3.03719 33.4118 3.13876 33.6686C3.23314 33.9072 3.33132 34.1439 3.43322 34.3787C3.54318 34.632 3.42698 34.9265 3.17368 35.0364C2.92037 35.1464 2.62589 35.0302 2.51593 34.7769C2.40966 34.5321 2.30728 34.2853 2.20885 34.0364C2.10729 33.7796 2.23312 33.4891 2.48991 33.3875ZM47.5101 33.3875C47.7669 33.4891 47.8927 33.7796 47.7911 34.0364C47.6927 34.2853 47.5903 34.5321 47.4841 34.7769C47.3741 35.0302 47.0796 35.1464 46.8263 35.0364C46.573 34.9265 46.4568 34.632 46.5668 34.3787C46.6687 34.1439 46.7669 33.9072 46.8612 33.6686C46.9628 33.4118 47.2533 33.286 47.5101 33.3875ZM4.55538 37.6161C4.78732 37.4663 5.09683 37.5328 5.24669 37.7648C5.38589 37.9802 5.52853 38.1933 5.67451 38.4038C5.83186 38.6307 5.77546 38.9422 5.54854 39.0996C5.32161 39.2569 5.01009 39.2005 4.85274 38.9736C4.70056 38.7541 4.55186 38.5321 4.40674 38.3074C4.25689 38.0755 4.32344 37.766 4.55538 37.6161ZM45.4446 37.6161C45.6766 37.766 45.7431 38.0755 45.5933 38.3074C45.4481 38.5321 45.2994 38.7541 45.1473 38.9736C44.9899 39.2005 44.6784 39.2569 44.4515 39.0996C44.2245 38.9422 44.1681 38.6307 44.3255 38.4038C44.4715 38.1933 44.6141 37.9802 44.7533 37.7648C44.9032 37.5328 45.2127 37.4663 45.4446 37.6161ZM7.40625 41.3607C7.60466 41.1686 7.9212 41.1737 8.11326 41.3722C8.29159 41.5564 8.47291 41.7377 8.65714 41.916C8.85555 42.1081 8.8607 42.4246 8.66864 42.6231C8.47658 42.8215 8.16004 42.8266 7.96163 42.6346C7.76961 42.4487 7.58062 42.2597 7.39475 42.0677C7.20269 41.8693 7.20784 41.5527 7.40625 41.3607ZM42.5938 41.3607C42.7922 41.5527 42.7973 41.8693 42.6053 42.0677C42.4194 42.2597 42.2304 42.4487 42.0384 42.6345C41.84 42.8266 41.5234 42.8215 41.3314 42.6231C41.1393 42.4246 41.1444 42.1081 41.3429 41.916C41.5271 41.7377 41.7084 41.5564 41.8867 41.3722C42.0788 41.1737 42.3953 41.1686 42.5938 41.3607ZM10.9297 44.4808C11.0871 44.2538 11.3986 44.1974 11.6255 44.3548C11.836 44.5008 12.0491 44.6434 12.2645 44.7826C12.4965 44.9325 12.563 45.242 12.4132 45.4739C12.2633 45.7059 11.9538 45.7724 11.7219 45.6226C11.4972 45.4774 11.2752 45.3287 11.0557 45.1766C10.8288 45.0192 10.7724 44.7077 10.9297 44.4808ZM39.0703 44.4808C39.2276 44.7077 39.1712 45.0192 38.9443 45.1766C38.7248 45.3287 38.5028 45.4774 38.2781 45.6226C38.0462 45.7724 37.7367 45.7059 37.5868 45.4739C37.437 45.242 37.5035 44.9325 37.7355 44.7826C37.9509 44.6434 38.164 44.5008 38.3745 44.3548C38.6014 44.1974 38.9129 44.2538 39.0703 44.4808ZM14.9929 46.8556C15.1028 46.6023 15.3973 46.4861 15.6506 46.5961C15.8854 46.698 16.1221 46.7962 16.3607 46.8905C16.6175 46.9921 16.7433 47.2826 16.6418 47.5394C16.5402 47.7962 16.2497 47.922 15.9929 47.8204C15.744 47.722 15.4972 47.6196 15.2524 47.5134C14.9991 47.4034 14.8829 47.1089 14.9929 46.8556ZM35.0071 46.8556C35.1171 47.1089 35.0009 47.4034 34.7476 47.5134C34.5028 47.6196 34.256 47.722 34.0071 47.8204C33.7503 47.922 33.4598 47.7962 33.3582 47.5394C33.2567 47.2826 33.3825 46.9921 33.6393 46.8905C33.8779 46.7962 34.1146 46.698 34.3494 46.5961C34.6027 46.4861 34.8972 46.6023 35.0071 46.8556ZM19.4425 48.388C19.5005 48.118 19.7665 47.9462 20.0364 48.0042C20.2863 48.058 20.5376 48.1077 20.7903 48.1534C21.0621 48.2025 21.2425 48.4627 21.1934 48.7344C21.1443 49.0061 20.8841 49.1866 20.6124 49.1374C20.3489 49.0898 20.0868 49.0379 19.8262 48.9819C19.5563 48.9239 19.3845 48.6579 19.4425 48.388ZM30.5575 48.388C30.6155 48.6579 30.4437 48.9239 30.1738 48.9819C29.9132 49.0379 29.6511 49.0898 29.3876 49.1374C29.1159 49.1866 28.8557 49.0061 28.8066 48.7344C28.7575 48.4627 28.9379 48.2025 29.2097 48.1534C29.4624 48.1077 29.7137 48.058 29.9636 48.0042C30.2335 47.9462 30.4995 48.118 30.5575 48.388ZM24.1058 49.0181C24.1103 48.742 24.3377 48.5217 24.6138 48.5262C24.7423 48.5283 24.871 48.5293 25 48.5293C25.129 48.5293 25.2577 48.5283 25.3862 48.5262C25.6623 48.5217 25.8897 48.742 25.8942 49.0181C25.8986 49.2942 25.6784 49.5216 25.4023 49.5261C25.2685 49.5282 25.1344 49.5293 25 49.5293C24.8656 49.5293 24.7315 49.5282 24.5977 49.5261C24.3216 49.5216 24.1014 49.2942 24.1058 49.0181Z" fill="black"/>
<path d="M16.5293 34.0293H22.6287V25.4765H19.7506V22.1434H22.6287V19.6852C22.6287 16.8327 24.3709 15.2793 26.9157 15.2793C28.1347 15.2793 29.1824 15.3701 29.4877 15.4107V18.3919L27.7226 18.3927C26.3388 18.3927 26.0708 19.0503 26.0708 20.0153V22.1434H29.3714L28.9416 25.4765H26.0708V34.0293H31.4905H16.5293Z" fill="black"/>
</svg>
