<svg width="50" height="50" viewBox="0 0 50 50" fill="none" xmlns="http://www.w3.org/2000/svg">
<path fill-rule="evenodd" clip-rule="evenodd" d="M24.5977 0.503238C24.7315 0.501082 24.8656 0.5 25 0.5C25.1344 0.5 25.2685 0.501082 25.4023 0.503238C25.6784 0.507685 25.8986 0.735118 25.8942 1.01122C25.8897 1.28733 25.6623 1.50756 25.3862 1.50311C25.2577 1.50104 25.129 1.5 25 1.5C24.871 1.5 24.7423 1.50104 24.6138 1.50311C24.3377 1.50756 24.1103 1.28733 24.1058 1.01122C24.1014 0.735118 24.3216 0.507685 24.5977 0.503238ZM28.8066 1.29491C28.8557 1.02317 29.1159 0.842724 29.3876 0.891861C29.6511 0.939517 29.9132 0.991388 30.1738 1.0474C30.4437 1.10545 30.6155 1.37136 30.5575 1.64133C30.4995 1.9113 30.2335 2.08311 29.9636 2.02506C29.7137 1.97135 29.4624 1.9216 29.2097 1.8759C28.9379 1.82676 28.7575 1.56665 28.8066 1.29491ZM21.1934 1.29491C21.2425 1.56665 21.0621 1.82676 20.7903 1.8759C20.5376 1.9216 20.2863 1.97135 20.0364 2.02506C19.7665 2.08311 19.5005 1.9113 19.4425 1.64133C19.3845 1.37136 19.5563 1.10545 19.8262 1.0474C20.0868 0.991388 20.3489 0.939517 20.6124 0.891861C20.8841 0.842724 21.1443 1.02317 21.1934 1.29491ZM16.6418 2.48991C16.7433 2.74669 16.6175 3.03719 16.3607 3.13876C16.1221 3.23314 15.8854 3.33132 15.6506 3.43322C15.3973 3.54318 15.1028 3.42698 14.9929 3.17368C14.8829 2.92037 14.9991 2.62589 15.2524 2.51593C15.4972 2.40966 15.744 2.30728 15.9929 2.20885C16.2497 2.10729 16.5402 2.23312 16.6418 2.48991ZM33.3582 2.48991C33.4598 2.23312 33.7503 2.10729 34.0071 2.20885C34.256 2.30728 34.5028 2.40966 34.7476 2.51593C35.0009 2.62589 35.1171 2.92037 35.0071 3.17368C34.8972 3.42698 34.6027 3.54318 34.3494 3.43322C34.1146 3.33132 33.8779 3.23314 33.6393 3.13876C33.3825 3.03719 33.2567 2.74669 33.3582 2.48991ZM12.4132 4.55538C12.563 4.78732 12.4965 5.09683 12.2645 5.24669C12.0491 5.38589 11.836 5.52853 11.6255 5.67451C11.3986 5.83186 11.0871 5.77546 10.9297 5.54854C10.7724 5.32161 10.8288 5.01009 11.0557 4.85274C11.2752 4.70056 11.4972 4.55186 11.7219 4.40674C11.9538 4.25689 12.2633 4.32344 12.4132 4.55538ZM37.5868 4.55538C37.7367 4.32344 38.0462 4.25689 38.2781 4.40674C38.5028 4.55186 38.7248 4.70056 38.9443 4.85274C39.1712 5.01009 39.2276 5.32161 39.0703 5.54854C38.9129 5.77546 38.6014 5.83186 38.3745 5.67451C38.164 5.52853 37.9509 5.38589 37.7355 5.24669C37.5035 5.09683 37.437 4.78732 37.5868 4.55538ZM41.3314 7.40625C41.5234 7.20784 41.84 7.20269 42.0384 7.39475C42.2304 7.58062 42.4194 7.76961 42.6052 7.96163C42.7973 8.16004 42.7922 8.47658 42.5938 8.66864C42.3953 8.8607 42.0788 8.85555 41.8867 8.65714C41.7084 8.47291 41.5271 8.29159 41.3429 8.11326C41.1444 7.9212 41.1393 7.60466 41.3314 7.40625ZM8.66864 7.40625C8.8607 7.60466 8.85555 7.9212 8.65714 8.11326C8.47291 8.29159 8.29159 8.47291 8.11326 8.65714C7.9212 8.85555 7.60466 8.8607 7.40625 8.66864C7.20784 8.47658 7.20269 8.16004 7.39475 7.96163C7.58062 7.76961 7.76961 7.58062 7.96163 7.39475C8.16004 7.20269 8.47658 7.20784 8.66864 7.40625ZM5.54854 10.9297C5.77546 11.0871 5.83186 11.3986 5.67451 11.6255C5.52853 11.836 5.38589 12.0491 5.24669 12.2645C5.09683 12.4965 4.78732 12.563 4.55538 12.4132C4.32344 12.2633 4.25689 11.9538 4.40674 11.7219C4.55186 11.4972 4.70056 11.2752 4.85274 11.0557C5.01009 10.8288 5.32161 10.7724 5.54854 10.9297ZM44.4515 10.9297C44.6784 10.7724 44.9899 10.8288 45.1473 11.0557C45.2994 11.2752 45.4481 11.4972 45.5933 11.7219C45.7431 11.9538 45.6766 12.2633 45.4446 12.4132C45.2127 12.563 44.9032 12.4965 44.7533 12.2645C44.6141 12.0491 44.4715 11.836 44.3255 11.6255C44.1681 11.3986 44.2245 11.0871 44.4515 10.9297ZM46.8263 14.9929C47.0796 14.8829 47.3741 14.9991 47.4841 15.2524C47.5903 15.4972 47.6927 15.744 47.7911 15.9929C47.8927 16.2497 47.7669 16.5402 47.5101 16.6418C47.2533 16.7433 46.9628 16.6175 46.8612 16.3607C46.7669 16.1221 46.6687 15.8854 46.5668 15.6506C46.4568 15.3973 46.573 15.1028 46.8263 14.9929ZM3.17368 14.9929C3.42698 15.1028 3.54318 15.3973 3.43322 15.6506C3.33132 15.8854 3.23314 16.1221 3.13876 16.3607C3.03719 16.6175 2.74669 16.7433 2.48991 16.6418C2.23312 16.5402 2.10729 16.2497 2.20885 15.9929C2.30728 15.744 2.40966 15.4972 2.51593 15.2524C2.62589 14.9991 2.92037 14.8829 3.17368 14.9929ZM48.3587 19.4425C48.6286 19.3845 48.8946 19.5563 48.9526 19.8262C49.0086 20.0868 49.0605 20.3489 49.1081 20.6124C49.1573 20.8841 48.9768 21.1443 48.7051 21.1934C48.4334 21.2425 48.1732 21.0621 48.1241 20.7903C48.0784 20.5376 48.0287 20.2863 47.9749 20.0364C47.9169 19.7665 48.0887 19.5005 48.3587 19.4425ZM1.64133 19.4425C1.9113 19.5005 2.08311 19.7665 2.02506 20.0364C1.97135 20.2863 1.9216 20.5376 1.8759 20.7903C1.82676 21.0621 1.56665 21.2425 1.29491 21.1934C1.02317 21.1443 0.842724 20.8841 0.891861 20.6124C0.939517 20.3489 0.991388 20.0868 1.0474 19.8262C1.10545 19.5563 1.37136 19.3845 1.64133 19.4425ZM1.01122 24.1058C1.28733 24.1103 1.50756 24.3377 1.50311 24.6138C1.50104 24.7423 1.5 24.871 1.5 25C1.5 25.129 1.50104 25.2577 1.50311 25.3862C1.50756 25.6623 1.28733 25.8897 1.01122 25.8942C0.735118 25.8986 0.507685 25.6784 0.503238 25.4023C0.501082 25.2685 0.5 25.1344 0.5 25C0.5 24.8656 0.501082 24.7315 0.503238 24.5977C0.507685 24.3216 0.735118 24.1014 1.01122 24.1058ZM48.9888 24.1058C49.2649 24.1014 49.4923 24.3216 49.4968 24.5977C49.4989 24.7315 49.5 24.8656 49.5 25C49.5 25.1344 49.4989 25.2685 49.4968 25.4023C49.4923 25.6784 49.2649 25.8986 48.9888 25.8942C48.7127 25.8897 48.4924 25.6623 48.4969 25.3862C48.499 25.2577 48.5 25.129 48.5 25C48.5 24.871 48.499 24.7423 48.4969 24.6138C48.4924 24.3377 48.7127 24.1103 48.9888 24.1058ZM48.7051 28.8066C48.9768 28.8557 49.1573 29.1159 49.1081 29.3876C49.0605 29.6511 49.0086 29.9132 48.9526 30.1738C48.8946 30.4437 48.6286 30.6155 48.3587 30.5575C48.0887 30.4995 47.9169 30.2335 47.9749 29.9636C48.0287 29.7137 48.0784 29.4624 48.1241 29.2097C48.1732 28.9379 48.4334 28.7575 48.7051 28.8066ZM1.29491 28.8066C1.56665 28.7575 1.82676 28.9379 1.8759 29.2097C1.9216 29.4624 1.97135 29.7137 2.02506 29.9636C2.08311 30.2335 1.9113 30.4995 1.64133 30.5575C1.37136 30.6155 1.10545 30.4437 1.0474 30.1738C0.991388 29.9132 0.939517 29.6511 0.891861 29.3876C0.842724 29.1159 1.02317 28.8557 1.29491 28.8066ZM2.48991 33.3582C2.74669 33.2567 3.03719 33.3825 3.13876 33.6393C3.23314 33.8779 3.33132 34.1146 3.43322 34.3494C3.54318 34.6027 3.42698 34.8972 3.17368 35.0071C2.92037 35.1171 2.62589 35.0009 2.51593 34.7476C2.40966 34.5028 2.30728 34.256 2.20885 34.0071C2.10729 33.7503 2.23312 33.4598 2.48991 33.3582ZM47.5101 33.3582C47.7669 33.4598 47.8927 33.7503 47.7911 34.0071C47.6927 34.256 47.5903 34.5028 47.4841 34.7476C47.3741 35.0009 47.0796 35.1171 46.8263 35.0071C46.573 34.8972 46.4568 34.6027 46.5668 34.3494C46.6687 34.1146 46.7669 33.8779 46.8612 33.6393C46.9628 33.3825 47.2533 33.2567 47.5101 33.3582ZM4.55538 37.5868C4.78732 37.437 5.09683 37.5035 5.24669 37.7355C5.38589 37.9509 5.52853 38.164 5.67451 38.3745C5.83186 38.6014 5.77546 38.9129 5.54854 39.0703C5.32161 39.2276 5.01009 39.1712 4.85274 38.9443C4.70056 38.7248 4.55186 38.5028 4.40674 38.2781C4.25689 38.0462 4.32344 37.7367 4.55538 37.5868ZM45.4446 37.5868C45.6766 37.7367 45.7431 38.0462 45.5933 38.2781C45.4481 38.5028 45.2994 38.7248 45.1473 38.9443C44.9899 39.1712 44.6784 39.2276 44.4515 39.0703C44.2245 38.9129 44.1681 38.6014 44.3255 38.3745C44.4715 38.164 44.6141 37.9509 44.7533 37.7355C44.9032 37.5035 45.2127 37.437 45.4446 37.5868ZM7.40625 41.3314C7.60466 41.1393 7.9212 41.1444 8.11326 41.3429C8.29159 41.5271 8.47291 41.7084 8.65714 41.8867C8.85555 42.0788 8.8607 42.3953 8.66864 42.5938C8.47658 42.7922 8.16004 42.7973 7.96163 42.6053C7.76961 42.4194 7.58062 42.2304 7.39475 42.0384C7.20269 41.84 7.20784 41.5234 7.40625 41.3314ZM42.5938 41.3314C42.7922 41.5234 42.7973 41.84 42.6053 42.0384C42.4194 42.2304 42.2304 42.4194 42.0384 42.6052C41.84 42.7973 41.5234 42.7922 41.3314 42.5938C41.1393 42.3953 41.1444 42.0788 41.3429 41.8867C41.5271 41.7084 41.7084 41.5271 41.8867 41.3429C42.0788 41.1444 42.3953 41.1393 42.5938 41.3314ZM10.9297 44.4515C11.0871 44.2245 11.3986 44.1681 11.6255 44.3255C11.836 44.4715 12.0491 44.6141 12.2645 44.7533C12.4965 44.9032 12.563 45.2127 12.4132 45.4446C12.2633 45.6766 11.9538 45.7431 11.7219 45.5933C11.4972 45.4481 11.2752 45.2994 11.0557 45.1473C10.8288 44.9899 10.7724 44.6784 10.9297 44.4515ZM39.0703 44.4515C39.2276 44.6784 39.1712 44.9899 38.9443 45.1473C38.7248 45.2994 38.5028 45.4481 38.2781 45.5933C38.0462 45.7431 37.7367 45.6766 37.5868 45.4446C37.437 45.2127 37.5035 44.9032 37.7355 44.7533C37.9509 44.6141 38.164 44.4715 38.3745 44.3255C38.6014 44.1681 38.9129 44.2245 39.0703 44.4515ZM14.9929 46.8263C15.1028 46.573 15.3973 46.4568 15.6506 46.5668C15.8854 46.6687 16.1221 46.7669 16.3607 46.8612C16.6175 46.9628 16.7433 47.2533 16.6418 47.5101C16.5402 47.7669 16.2497 47.8927 15.9929 47.7911C15.744 47.6927 15.4972 47.5903 15.2524 47.4841C14.9991 47.3741 14.8829 47.0796 14.9929 46.8263ZM35.0071 46.8263C35.1171 47.0796 35.0009 47.3741 34.7476 47.4841C34.5028 47.5903 34.256 47.6927 34.0071 47.7911C33.7503 47.8927 33.4598 47.7669 33.3582 47.5101C33.2567 47.2533 33.3825 46.9628 33.6393 46.8612C33.8779 46.7669 34.1146 46.6687 34.3494 46.5668C34.6027 46.4568 34.8972 46.573 35.0071 46.8263ZM19.4425 48.3587C19.5005 48.0887 19.7665 47.9169 20.0364 47.9749C20.2863 48.0287 20.5376 48.0784 20.7903 48.1241C21.0621 48.1732 21.2425 48.4334 21.1934 48.7051C21.1443 48.9768 20.8841 49.1573 20.6124 49.1081C20.3489 49.0605 20.0868 49.0086 19.8262 48.9526C19.5563 48.8946 19.3845 48.6286 19.4425 48.3587ZM30.5575 48.3587C30.6155 48.6286 30.4437 48.8946 30.1738 48.9526C29.9132 49.0086 29.6511 49.0605 29.3876 49.1081C29.1159 49.1573 28.8557 48.9768 28.8066 48.7051C28.7575 48.4334 28.9379 48.1732 29.2097 48.1241C29.4624 48.0784 29.7137 48.0287 29.9636 47.9749C30.2335 47.9169 30.4995 48.0887 30.5575 48.3587ZM24.1058 48.9888C24.1103 48.7127 24.3377 48.4924 24.6138 48.4969C24.7423 48.499 24.871 48.5 25 48.5C25.129 48.5 25.2577 48.499 25.3862 48.4969C25.6623 48.4924 25.8897 48.7127 25.8942 48.9888C25.8986 49.2649 25.6784 49.4923 25.4023 49.4968C25.2685 49.4989 25.1344 49.5 25 49.5C24.8656 49.5 24.7315 49.4989 24.5977 49.4968C24.3216 49.4923 24.1014 49.2649 24.1058 48.9888Z" fill="black"/>
<path fill-rule="evenodd" clip-rule="evenodd" d="M36.5 19.1309C35.7284 19.4923 34.8976 19.7367 34.0261 19.8459C34.9161 19.2843 35.599 18.3937 35.9207 17.3328C35.0874 17.8529 34.1667 18.2312 33.183 18.434C32.3991 17.5512 31.2787 17 30.0387 17C27.6609 17 25.7319 19.0347 25.7319 21.5439C25.7319 21.9001 25.7689 22.2459 25.8428 22.5788C22.2621 22.3889 19.0881 20.5818 16.9619 17.8295C16.5909 18.5029 16.3789 19.2843 16.3789 20.1164C16.3789 21.6921 17.1394 23.0832 18.2956 23.8984C17.5905 23.8763 16.9249 23.6696 16.3431 23.3315V23.3874C16.3431 25.5898 17.8284 27.4269 19.8006 27.8429C19.4394 27.9495 19.0585 28.0028 18.6653 28.0028C18.388 28.0028 18.1168 27.9755 17.8543 27.9222C18.4028 29.7268 19.9929 31.0412 21.8788 31.0763C20.4046 32.2958 18.5458 33.0225 16.528 33.0225C16.1804 33.0225 15.8365 33.0017 15.5 32.9601C17.4068 34.2472 19.6724 35 22.1043 35C30.03 35 34.3627 28.0769 34.3627 22.0717C34.3627 21.8741 34.359 21.6765 34.3516 21.4828C35.1934 20.8418 35.9244 20.0423 36.5 19.1309Z" fill="black"/>
</svg>
