<?xml version="1.0" encoding="UTF-8"?>
<svg id="Layer_2" data-name="Layer 2" xmlns="http://www.w3.org/2000/svg" viewBox="0 0 760.79 387.73">
  <g id="Layer_1-2" data-name="Layer 1">
    <g>
      <g>
        <path d="M245.34,261.09v73.01H51.64v-73.01H245.34m51.64-51.64H0v176.29H296.98V209.45h0Z"/>
        <path d="M68.39,0c13.99,0,25.68,1.6,35.06,4.82,9.38,3.21,16.83,7.57,22.34,13.09,5.51,5.51,9.43,12.01,11.73,19.5,2.3,7.49,3.45,15.51,3.45,24.07s-1.19,16.87-3.58,24.45c-2.39,7.57-6.3,14.11-11.73,19.62-5.43,5.52-12.84,9.88-22.22,13.09-9.38,3.21-20.99,4.82-34.81,4.82h-14.81v52.84H0V0H68.39Zm.49,79.99c8.39,0,14.11-1.52,17.16-4.57,3.05-3.04,4.57-7.61,4.57-13.7s-1.56-10.66-4.69-13.7c-3.13-3.04-8.81-4.57-17.04-4.57h-15.06v36.54h15.06Z"/>
        <path d="M296.17,88.14c-4.52,8.4-10.9,15.23-19.13,20.49l36.54,67.65h-57.28l-28.15-56.54h-19.75v56.54h-52.59V0h75.55c13.5,0,24.81,1.52,33.95,4.57,9.13,3.04,16.5,7.16,22.1,12.35,5.6,5.18,9.59,11.31,11.97,18.39,2.39,7.08,3.58,14.57,3.58,22.47,0,11.85-2.26,21.97-6.79,30.37Zm-69.01-9.13c8.39,0,14.36-1.57,17.9-4.7,3.54-3.13,5.31-7.82,5.31-14.07s-1.77-10.94-5.31-14.07c-3.54-3.13-9.51-4.7-17.9-4.7h-18.76v37.53h18.76Z"/>
        <path d="M378.28,0V176.29h-56.05V0h56.05Z"/>
        <path d="M542.47,88.88l-26.17,87.41h-39.5l-26.17-87.41v87.41h-50.12V0h64.19l32.59,107.15L529.88,0h63.95V176.29h-51.36V88.88Z"/>
        <path d="M755.36,0V43.21h-84.23v22.47h78.57v43.21h-78.57v24.2h84.23v43.21h-139.29V0h139.29Z"/>
        <path d="M390.62,209.45c13.99,0,25.68,1.6,35.06,4.82,9.38,3.21,16.83,7.57,22.34,13.09,5.51,5.51,9.43,12.01,11.73,19.5,2.3,7.49,3.45,15.51,3.45,24.07s-1.19,16.87-3.58,24.45c-2.39,7.57-6.3,14.11-11.73,19.62-5.43,5.52-12.84,9.88-22.22,13.09-9.38,3.21-20.99,4.82-34.81,4.82h-14.81v52.84h-53.82V209.45h68.39Zm.49,79.99c8.39,0,14.11-1.52,17.16-4.57,3.05-3.04,4.57-7.61,4.57-13.7s-1.56-10.66-4.69-13.7c-3.13-3.04-8.81-4.57-17.04-4.57h-15.06v36.54h15.06Z"/>
        <path d="M540.63,209.45v128.14h73.82l-4.69,48.14h-125.18V209.45h56.05Z"/>
        <path d="M669.42,274.1l27.16-64.19h58.27l-57.77,110.86v65.43h-56.29v-65.43l-57.78-110.86h59.5l26.91,64.19Z"/>
      </g>
      <path d="M734.12,387.73c-5.31,0-9.97-1.16-14-3.5-4.02-2.33-7.1-5.51-9.23-9.53-2.13-4.02-3.2-8.61-3.2-13.76s1.15-10.14,3.44-14.24c2.29-4.1,5.45-7.26,9.47-9.47,4.02-2.21,8.61-3.32,13.75-3.32,7.8,0,14.16,2.49,19.06,7.48,4.91,4.99,7.36,11.46,7.36,19.43s-2.47,14.44-7.42,19.42c-4.95,4.99-11.36,7.48-19.25,7.48Zm.12-5.84c6.31,0,11.18-1.85,14.63-5.55,3.45-3.7,5.17-8.87,5.17-15.51s-1.72-11.81-5.17-15.51c-3.45-3.7-8.32-5.55-14.63-5.55s-11.18,1.85-14.63,5.55c-3.45,3.7-5.17,8.87-5.17,15.51s1.72,11.81,5.17,15.51c3.45,3.7,8.32,5.55,14.63,5.55Zm3.98-8.39l-3.74-8.33h-3.62v8.33h-7.6v-25.94h11.1c7.24,0,10.86,2.86,10.86,8.57,0,3.14-1.17,5.51-3.5,7.12l4.95,10.26h-8.45Zm-4.34-14.24c1.29,0,2.21-.22,2.78-.66,.56-.44,.84-1.19,.84-2.23,0-1.85-1.33-2.78-3.98-2.78h-2.65v5.67h3.02Z"/>
    </g>
  </g>
</svg>